<svg width="16" height="16" viewBox="0 0 11 10" fill="none" xmlns="http://www.w3.org/2000/svg">
<path d="M6.17628 0.722833L7.0635 2.49727C7.18305 2.74267 7.50396 2.97549 7.77453 3.02583L9.37907 3.2901C10.4047 3.46 10.6438 4.20249 9.90763 4.94498L8.65546 6.19716C8.44781 6.4048 8.32826 6.81381 8.39747 7.10955L8.75613 8.65746C9.03929 9.87817 8.38489 10.3564 7.3089 9.71457L5.80503 8.82106C5.53446 8.65746 5.08141 8.65746 4.81084 8.82106L3.30698 9.71457C2.23099 10.3501 1.57659 9.87817 1.85974 8.65746L2.21841 7.10955C2.27504 6.80751 2.15548 6.39851 1.94784 6.19087L0.695662 4.93869C-0.0405404 4.20249 0.198568 3.46 1.22422 3.28381L2.82876 3.01953C3.09933 2.97549 3.42024 2.73638 3.53979 2.49098L4.42701 0.716541C4.91152 -0.239893 5.69177 -0.239893 6.17628 0.722833Z" fill="#FFD7A8"/>
</svg>
