<svg width="15" height="15" viewBox="0 0 15 15" fill="none" xmlns="http://www.w3.org/2000/svg">
<path d="M7.09964 2.79702L7.5 3.33215L7.90036 2.79702C8.56792 1.90473 9.63741 1.325 10.83 1.325C12.854 1.325 14.5 2.9738 14.5 5.0175C14.5 5.85562 14.3664 6.62875 14.1343 7.34608L14.1332 7.34934C13.5765 9.11105 12.4341 10.5353 11.195 11.6002C9.95375 12.667 8.64415 13.3483 7.80394 13.6341L7.80393 13.6341L7.79859 13.636C7.74125 13.6562 7.633 13.675 7.5 13.675C7.367 13.675 7.25875 13.6562 7.20141 13.636L7.20142 13.636L7.19606 13.6341C6.35584 13.3483 5.04625 12.667 3.80496 11.6002C2.56587 10.5353 1.42346 9.11105 0.866762 7.34934L0.866774 7.34934L0.865722 7.34609C0.633641 6.62875 0.5 5.85562 0.5 5.0175C0.5 2.9738 2.14598 1.325 4.17 1.325C5.3626 1.325 6.43208 1.90473 7.09964 2.79702Z" stroke="#1F2A37"/>
</svg>
