<svg width="16" height="16" viewBox="0 0 16 16" fill="none" xmlns="http://www.w3.org/2000/svg">
<path d="M5.92 3.06667C5.38666 0.760002 1.91333 0.753335 1.38 3.06667C1.06666 4.42 1.92666 5.56667 2.67333 6.28C3.22 6.79334 4.08 6.79334 4.62666 6.28C5.37333 5.56667 6.22666 4.42 5.92 3.06667ZM3.67333 4.13334C3.30666 4.13334 3.00666 3.83333 3.00666 3.46667C3.00666 3.1 3.3 2.8 3.66666 2.8H3.67333C4.04666 2.8 4.34 3.1 4.34 3.46667C4.34 3.83333 4.04666 4.13334 3.67333 4.13334Z" fill="#9CA3AF"/>
<path d="M14.6067 11.0667C14.0733 8.76 10.5867 8.75334 10.0467 11.0667C9.73333 12.42 10.5933 13.5667 11.3467 14.28C11.8933 14.7933 12.76 14.7933 13.3067 14.28C14.06 13.5667 14.92 12.42 14.6067 11.0667ZM12.3533 12.1333C11.9867 12.1333 11.6867 11.8333 11.6867 11.4667C11.6867 11.1 11.98 10.8 12.3467 10.8H12.3533C12.72 10.8 13.02 11.1 13.02 11.4667C13.02 11.8333 12.72 12.1333 12.3533 12.1333Z" fill="#9CA3AF"/>
<path d="M7.99994 13.1667H6.21327C5.43994 13.1667 4.76661 12.7 4.49994 11.98C4.22661 11.26 4.42661 10.4667 5.00661 9.95333L10.3333 5.29333C10.6533 5.01333 10.6599 4.63333 10.5666 4.37333C10.4666 4.11333 10.2133 3.83333 9.78661 3.83333H7.99994C7.72661 3.83333 7.49994 3.60667 7.49994 3.33333C7.49994 3.06 7.72661 2.83333 7.99994 2.83333H9.78661C10.5599 2.83333 11.2333 3.3 11.4999 4.02C11.7733 4.74 11.5733 5.53333 10.9933 6.04666L5.66661 10.7067C5.34661 10.9867 5.33994 11.3667 5.43327 11.6267C5.53327 11.8867 5.78661 12.1667 6.21327 12.1667H7.99994C8.27327 12.1667 8.49994 12.3933 8.49994 12.6667C8.49994 12.94 8.27327 13.1667 7.99994 13.1667Z" fill="#9CA3AF"/>
</svg>
