<svg width="28" height="36" viewBox="0 0 28 36" fill="none" xmlns="http://www.w3.org/2000/svg">
<g clip-path="url(#clip0_443_712)">
<path d="M20.6464 1.28387C18.9111 1.28387 16.7144 2.47719 13.9995 2.47719C11.2846 2.47719 9.08796 1.28387 7.35374 1.28387C4.36014 1.28387 -0.285097 3.64262 0.783309 9.76918C1.58126 14.338 5.26338 16.7495 5.26338 20.3717C5.26338 24.1529 3.98232 24.346 3.84193 28.9097C3.69535 33.6406 5.80844 34.7142 6.55272 34.7142C7.29699 34.7142 9.3027 35.0187 10.239 29.4248C11.3084 23.0247 13.9995 23.3075 13.9995 23.3075C13.9995 23.3075 16.6917 23.0278 17.7612 29.4248C18.6975 35.0187 20.7042 34.7142 21.4474 34.7142C22.1907 34.7142 24.3048 33.6406 24.1582 28.9097C24.0167 24.346 22.7367 24.1529 22.7367 20.3717C22.7367 16.7495 26.4188 14.338 27.2168 9.76918C28.2862 3.64262 23.6379 1.28387 20.6464 1.28387Z" stroke="white" stroke-width="1.5" stroke-linecap="round" stroke-linejoin="round"/>
<path d="M8.0391 14.6074C7.81097 14.2255 7.57975 13.8559 7.35265 13.4946C6.45663 12.067 5.68344 10.8344 5.4264 9.3655C5.20343 8.08858 5.35933 7.12135 5.88992 6.48959" stroke="white" stroke-width="1.5" stroke-linecap="round" stroke-linejoin="round"/>
</g>
<defs>
<clipPath id="clip0_443_712">
<rect width="27.858" height="34.5451" fill="white" transform="translate(0.0709839 0.727448)"/>
</clipPath>
</defs>
</svg>
