<svg width="10" height="11" viewBox="0 0 16 16" fill="none" xmlns="http://www.w3.org/2000/svg">
<path fill-rule="evenodd" clip-rule="evenodd" d="M7.91342 0.586456C7.43082 0.611146 6.95207 0.989107 6.58221 1.71922L5.17802 4.5276C4.98881 4.91599 4.48091 5.29443 4.05268 5.36414L1.51319 5.78241C-0.110091 6.06125 -0.488524 7.23639 0.676653 8.40157L2.65845 10.3834C2.98709 10.712 3.17631 11.3593 3.08668 11.8373L2.51903 14.2872C2.07088 16.2192 3.1066 16.9661 4.80955 15.9603L7.1897 14.5461C7.3881 14.4262 7.64848 14.3618 7.91342 14.353V0.586456Z" fill="#FEB052"/>
<path fill-rule="evenodd" clip-rule="evenodd" d="M7.91342 14.3544C8.22033 14.3442 8.53335 14.4086 8.76317 14.5475L11.1433 15.9617C12.8463 16.9775 13.882 16.2206 13.4338 14.2886L12.8662 11.8387C12.7566 11.3707 12.9459 10.7233 13.2745 10.3947L15.2563 8.41291C16.4215 7.23777 16.043 6.06264 14.4198 5.79375L11.8803 5.37548C11.452 5.29581 10.9441 4.92734 10.7549 4.53894L9.35074 1.73057C8.95378 0.941796 8.43138 0.561348 7.91342 0.587841V14.3544Z" fill="#FFD7A8"/>
</svg>
