<svg width="16" height="16" viewBox="0 0 16 16" fill="none" xmlns="http://www.w3.org/2000/svg">
<path d="M14.6667 14.1667H1.33334C1.06001 14.1667 0.833344 14.3933 0.833344 14.6667C0.833344 14.94 1.06001 15.1667 1.33334 15.1667H14.6667C14.94 15.1667 15.1667 14.94 15.1667 14.6667C15.1667 14.3933 14.94 14.1667 14.6667 14.1667Z" fill="#9CA3AF"/>
<path d="M11.3333 1.33333H4.66667C2.66667 1.33333 2 2.52667 2 4V14.6667H6V10.6267C6 10.28 6.28 10 6.62667 10H9.38C9.72 10 10.0067 10.28 10.0067 10.6267V14.6667H14.0067V4C14 2.52667 13.3333 1.33333 11.3333 1.33333ZM9.66667 6.16667H8.5V7.33333C8.5 7.60667 8.27333 7.83333 8 7.83333C7.72667 7.83333 7.5 7.60667 7.5 7.33333V6.16667H6.33333C6.06 6.16667 5.83333 5.94 5.83333 5.66667C5.83333 5.39333 6.06 5.16667 6.33333 5.16667H7.5V4C7.5 3.72667 7.72667 3.5 8 3.5C8.27333 3.5 8.5 3.72667 8.5 4V5.16667H9.66667C9.94 5.16667 10.1667 5.39333 10.1667 5.66667C10.1667 5.94 9.94 6.16667 9.66667 6.16667Z" fill="#9CA3AF"/>
</svg>
